<svg width="50" height="50" viewBox="0 0 50 50" fill="none" xmlns="http://www.w3.org/2000/svg">
  <path
    fill-rule="evenodd"
    clip-rule="evenodd"
    d="M12 26C5.37258 26 0 31.3726 0 38C0 44.6274 5.37258 50 12 50C18.6274 50 24 44.6274 24 38C24 31.3726 18.6274 26 12 26ZM12 48C17.5228 48 22 43.5228 22 38C22 32.4772 17.5228 28 12 28C6.47715 28 2 32.4772 2 38C2 43.5228 6.47715 48 12 48Z"
    fill="#F7AD19"
  />
  <path d="M23 37H35V39H23V37Z" fill="#F7AD19" />
  <path
    d="M34 38C34 33.5817 37.5817 30 42 30C46.4183 30 50 33.5817 50 38C50 42.4183 46.4183 46 42 46C37.5817 46 34 42.4183 34 38Z"
    fill="#F7AD19"
  />
  <path
    fill-rule="evenodd"
    clip-rule="evenodd"
    d="M12 0C5.37258 0 0 5.37258 0 12C0 18.6274 5.37258 24 12 24C18.6274 24 24 18.6274 24 12C24 5.37258 18.6274 0 12 0ZM12 22C17.5228 22 22 17.5228 22 12C22 6.47715 17.5228 2 12 2C6.47715 2 2 6.47715 2 12C2 17.5228 6.47715 22 12 22Z"
    fill="#F7AD19"
  />
  <path d="M23 11H35V13H23V11Z" fill="#F7AD19" />
  <path
    d="M34 12C34 7.58172 37.5817 4 42 4C46.4183 4 50 7.58172 50 12C50 16.4183 46.4183 20 42 20C37.5817 20 34 16.4183 34 12Z"
    fill="#F7AD19"
  />
</svg>
