<svg width="91" height="76" viewBox="0 0 91 76" fill="none" xmlns="http://www.w3.org/2000/svg">
  <path
    d="M51 7.99998C44.0498 15.1899 44.05 15.1901 44.05 15.1901L44.0509 15.191L44.3826 15.5118C44.6008 15.723 44.9215 16.0335 45.33 16.4294C46.147 17.2211 47.3149 18.354 48.7167 19.7168C51.0729 22.0075 54.0857 24.9439 57.2013 28H0V48H57.2013C54.0857 51.056 51.0729 53.9925 48.7167 56.2832C47.3149 57.646 46.147 58.7789 45.33 59.5706C44.9215 59.9664 44.6008 60.2769 44.3826 60.4882L44.0509 60.809L44.05 60.8099C44.05 60.8099 44.0498 60.8101 51 68C57.9502 75.1899 57.9507 75.1894 57.9507 75.1894L57.9518 75.1883L58.2913 74.8599C58.5124 74.6459 58.8363 74.3324 59.2481 73.9333C60.0717 73.1352 61.2476 71.9946 62.6583 70.6231C65.4785 67.8812 69.2431 64.2107 73.0114 60.5052C76.771 56.8083 80.569 53.0423 83.4418 50.1217C84.8674 48.6723 86.1285 47.3669 87.059 46.359C87.5081 45.8724 87.9845 45.3429 88.3885 44.8513C88.573 44.6269 88.8882 44.2349 89.2057 43.764C89.3557 43.5414 89.6464 43.0962 89.9373 42.5096L89.9518 42.4808C90.1078 42.1716 91 40.4039 91 38C91 35.5961 90.1079 33.8284 89.9518 33.5192L89.9373 33.4903C89.6464 32.9038 89.3557 32.4585 89.2057 32.236C88.8882 31.765 88.573 31.3731 88.3885 31.1486C87.9845 30.657 87.5081 30.1276 87.059 29.641C86.1285 28.633 84.8674 27.3276 83.4418 25.8782C80.569 22.9576 76.771 19.1917 73.0114 15.4947C69.2431 11.7892 65.4785 8.11876 62.6583 5.37691C61.2476 4.00537 60.0717 2.86481 59.2481 2.06669C58.8363 1.66761 58.5124 1.35408 58.2913 1.14002L57.9507 0.810547C57.9507 0.810547 57.9502 0.810098 51 7.99998Z"
    fill="#152D39"
  />
</svg>
