<svg width="94" height="42" viewBox="0 0 94 42" fill="none" xmlns="http://www.w3.org/2000/svg">
  <path
    d="M16 34C16 38.4183 12.4183 42 8 42C3.58172 42 0 38.4183 0 34C0 29.5817 3.58172 26 8 26C12.4183 26 16 29.5817 16 34Z"
    fill="#F7AD19"
  />
  <path
    d="M42 8C42 12.4183 38.4183 16 34 16C29.5817 16 26 12.4183 26 8C26 3.58172 29.5817 0 34 0C38.4183 0 42 3.58172 42 8Z"
    fill="#F7AD19"
  />
  <path
    d="M68 34C68 38.4183 64.4183 42 60 42C55.5817 42 52 38.4183 52 34C52 29.5817 55.5817 26 60 26C64.4183 26 68 29.5817 68 34Z"
    fill="#F7AD19"
  />
  <path
    d="M94 34C94 38.4183 90.4183 42 86 42C81.5817 42 78 38.4183 78 34C78 29.5817 81.5817 26 86 26C90.4183 26 94 29.5817 94 34Z"
    fill="#F7AD19"
  />
</svg>
