<svg width="160" height="25" viewBox="0 0 160 25" fill="none" xmlns="http://www.w3.org/2000/svg">
  <path
    fill-rule="evenodd"
    clip-rule="evenodd"
    d="M4.1065 0H0V13.0276H0.00126148C0.076789 17.2636 3.53423 20.6743 7.78826 20.6743C12.0896 20.6743 15.5765 17.1874 15.5765 12.886C15.5765 8.58468 12.0896 5.09777 7.78826 5.09777C6.4565 5.09777 5.2028 5.43203 4.1065 6.02124V0ZM5.2106 10.0449L7.94648 12.886L5.2106 15.7271L7.25062 17.6916L11.8782 12.886L7.25062 8.08047L5.2106 10.0449Z"
    fill="#F7AD19"
  />
  <path
    fill-rule="evenodd"
    clip-rule="evenodd"
    d="M101.173 19.5698C102.268 20.2306 103.486 20.561 104.826 20.561C106.025 20.561 107.125 20.2825 108.126 19.7255C109.126 19.1591 109.938 18.3803 110.561 17.389V20.1079H113.308V0H110.561V8.25554C109.976 7.28319 109.183 6.52324 108.182 5.9757C107.191 5.42817 106.091 5.1544 104.883 5.1544C103.486 5.1544 102.24 5.48953 101.145 6.15979C100.059 6.83005 99.1999 7.74576 98.5674 8.90692C97.9443 10.0586 97.6328 11.3756 97.6328 12.8577C97.6328 14.3493 97.949 15.6756 98.5815 16.8368C99.2235 17.9979 100.087 18.9089 101.173 19.5698ZM108.196 17.5165C107.432 17.9696 106.554 18.1962 105.563 18.1962C104.581 18.1962 103.708 17.9696 102.943 17.5165C102.178 17.0539 101.579 16.4214 101.145 15.619C100.71 14.8166 100.493 13.9008 100.493 12.8719C100.493 11.8334 100.71 10.913 101.145 10.1106C101.588 9.29869 102.192 8.66619 102.957 8.21306C103.722 7.75048 104.595 7.5192 105.577 7.5192C106.559 7.5192 107.432 7.75048 108.196 8.21306C108.961 8.66619 109.561 9.29869 109.995 10.1106C110.429 10.913 110.646 11.8334 110.646 12.8719C110.646 13.9008 110.429 14.8166 109.995 15.619C109.561 16.4214 108.961 17.0539 108.196 17.5165Z"
    fill="white"
  />
  <path
    d="M51.3402 20.1079V0H54.0873V11.3567L59.7515 5.60753H63.3199L56.5654 12.5178L63.6598 20.1079H60.1338L54.0873 13.5657V20.1079H51.3402Z"
    fill="white"
  />
  <path
    fill-rule="evenodd"
    clip-rule="evenodd"
    d="M21.5246 19.5698C22.6197 20.2306 23.8422 20.561 25.1922 20.561C26.3911 20.561 27.4862 20.2825 28.4774 19.7255C29.4687 19.1685 30.2805 18.3897 30.913 17.389V20.1079H33.6602V5.60753H30.913V8.25554C30.356 7.28319 29.5678 6.52324 28.5482 5.9757C27.5381 5.42817 26.4194 5.1544 25.1922 5.1544C23.8045 5.1544 22.5678 5.48953 21.4821 6.15979C20.3965 6.83005 19.5422 7.74576 18.9191 8.90692C18.296 10.0586 17.9845 11.3708 17.9845 12.8435C17.9845 14.3351 18.3008 15.6615 18.9333 16.8226C19.5752 17.9838 20.439 18.8995 21.5246 19.5698ZM28.5482 17.5165C27.793 17.9696 26.9198 18.1962 25.9285 18.1962C24.9467 18.1962 24.0735 17.9696 23.3089 17.5165C22.5442 17.0539 21.94 16.4214 21.4963 15.619C21.0621 14.8071 20.8449 13.8867 20.8449 12.8577C20.8449 11.8193 21.0621 10.8988 21.4963 10.0964C21.94 9.29397 22.5442 8.66619 23.3089 8.21306C24.0735 7.75048 24.9467 7.5192 25.9285 7.5192C26.9198 7.5192 27.793 7.75048 28.5482 8.21306C29.3129 8.66619 29.9124 9.29397 30.3466 10.0964C30.7809 10.8988 30.998 11.8193 30.998 12.8577C30.998 13.8961 30.7809 14.8166 30.3466 15.619C29.9124 16.4214 29.3129 17.0539 28.5482 17.5165Z"
    fill="white"
  />
  <path
    d="M40.8594 19.9804C41.8223 20.3675 42.8513 20.561 43.9464 20.561C44.8999 20.561 45.8014 20.4194 46.6511 20.1362C47.5007 19.853 48.2276 19.4801 48.8318 19.0175L47.7839 17.1625C47.3402 17.5118 46.821 17.7855 46.2263 17.9838C45.6315 18.1726 44.999 18.267 44.3288 18.267C43.2526 18.267 42.2991 18.031 41.4683 17.559C40.647 17.0775 40.0051 16.4309 39.5425 15.619C39.0799 14.7977 38.8486 13.8772 38.8486 12.8577C38.8486 11.8665 39.0705 10.9602 39.5142 10.1389C39.9673 9.31758 40.6045 8.66619 41.4259 8.18474C42.2472 7.69384 43.2054 7.44839 44.3004 7.44839C45.6787 7.44839 46.8446 7.81657 47.7981 8.55291L48.8318 6.69789C48.237 6.22587 47.5101 5.85298 46.6511 5.57921C45.792 5.296 44.8857 5.1544 43.9323 5.1544C42.8089 5.1544 41.7657 5.35264 40.8028 5.74914C39.8399 6.14563 38.9997 6.69789 38.2822 7.40591C37.5648 8.1045 37.0078 8.92108 36.6113 9.85567C36.2148 10.7808 36.0166 11.7815 36.0166 12.8577C36.0166 13.9528 36.2195 14.9676 36.6255 15.9022C37.0408 16.8368 37.612 17.6534 38.3389 18.352C39.0658 19.0505 39.906 19.5934 40.8594 19.9804Z"
    fill="white"
  />
  <path
    fill-rule="evenodd"
    clip-rule="evenodd"
    d="M67.8141 19.5556C69.0225 20.2259 70.3866 20.561 71.9065 20.561C73.3792 20.561 74.715 20.2447 75.9139 19.6122C77.1223 18.9797 78.071 18.0923 78.7602 16.9501L76.7494 15.9022C76.1735 16.7046 75.4938 17.3088 74.7103 17.7147C73.9267 18.1207 73.0393 18.3236 72.0481 18.3236C71.0002 18.3236 70.0704 18.1065 69.2585 17.6723C68.4561 17.2286 67.8236 16.6197 67.361 15.8456C66.9079 15.0714 66.6813 14.1793 66.6813 13.1692H79.1425C79.1708 13.0465 79.1897 12.9474 79.1991 12.8719C79.2086 12.7963 79.2133 12.6972 79.2133 12.5745C79.2133 11.1018 78.8923 9.80847 78.2504 8.69451C77.6179 7.58056 76.7305 6.71205 75.5882 6.08899C74.4554 5.46593 73.1337 5.1544 71.6233 5.1544C70.5565 5.1544 69.5559 5.35264 68.6213 5.74914C67.6867 6.14563 66.8654 6.70261 66.1573 7.42007C65.4493 8.1281 64.8971 8.9494 64.5006 9.88399C64.1041 10.8186 63.9058 11.824 63.9058 12.9002C63.9058 14.354 64.2551 15.6615 64.9537 16.8226C65.6523 17.9743 66.6058 18.8853 67.8141 19.5556ZM76.452 11.1443H66.8229C66.9551 10.3796 67.2383 9.71879 67.6725 9.16181C68.1162 8.59539 68.6779 8.16114 69.3576 7.85905C70.0468 7.54752 70.8161 7.39175 71.6658 7.39175C72.4776 7.39175 73.2187 7.55224 73.889 7.87321C74.5687 8.18474 75.1304 8.62371 75.5741 9.19013C76.0272 9.74711 76.3199 10.3985 76.452 11.1443Z"
    fill="white"
  />
  <path
    d="M82.0363 20.1079V5.60753H84.7835V7.47672C85.2272 6.81589 85.8644 6.26363 86.6951 5.81994C87.5259 5.37625 88.5124 5.1544 89.6547 5.1544C90.7781 5.1544 91.7504 5.39041 92.5717 5.86242C93.393 6.325 94.0255 6.99526 94.4692 7.87321C94.9224 8.75116 95.1489 9.79903 95.1489 11.0168V20.1079H92.4018V11.5691C92.4018 10.2097 92.0761 9.16653 91.4247 8.43963C90.7733 7.71272 89.8576 7.34927 88.6776 7.34927C87.8657 7.34927 87.1671 7.51448 86.5818 7.84489C86.006 8.16586 85.5623 8.60011 85.2508 9.14765C84.9392 9.68575 84.7835 10.2758 84.7835 10.9177V20.1079H82.0363Z"
    fill="white"
  />
  <path
    fill-rule="evenodd"
    clip-rule="evenodd"
    d="M123.963 20.561C122.443 20.561 121.079 20.2259 119.87 19.5556C118.662 18.8853 117.709 17.9743 117.01 16.8226C116.311 15.6615 115.962 14.354 115.962 12.9002C115.962 11.824 116.16 10.8186 116.557 9.88399C116.953 8.9494 117.506 8.1281 118.214 7.42007C118.922 6.70261 119.743 6.14563 120.678 5.74914C121.612 5.35264 122.613 5.1544 123.68 5.1544C125.19 5.1544 126.512 5.46593 127.645 6.08899C128.787 6.71205 129.674 7.58056 130.307 8.69451C130.949 9.80847 131.27 11.1018 131.27 12.5745C131.27 12.6972 131.265 12.7963 131.255 12.8719C131.246 12.9474 131.227 13.0465 131.199 13.1692H118.738C118.738 14.1793 118.964 15.0714 119.417 15.8456C119.88 16.6197 120.512 17.2286 121.315 17.6723C122.127 18.1065 123.057 18.3236 124.104 18.3236C125.096 18.3236 125.983 18.1207 126.767 17.7147C127.55 17.3088 128.23 16.7046 128.806 15.9022L130.817 16.9501C130.127 18.0923 129.179 18.9797 127.97 19.6122C126.771 20.2447 125.436 20.561 123.963 20.561ZM118.879 11.1443H128.508C128.376 10.3985 128.084 9.74711 127.63 9.19013C127.187 8.62371 126.625 8.18474 125.945 7.87321C125.275 7.55224 124.534 7.39175 123.722 7.39175C122.872 7.39175 122.103 7.54752 121.414 7.85905C120.734 8.16114 120.173 8.59539 119.729 9.16181C119.295 9.71879 119.011 10.3796 118.879 11.1443Z"
    fill="white"
  />
  <path
    d="M134.659 5.60753V20.1079H137.406V10.9744C137.406 10.3796 137.581 9.82263 137.93 9.30341C138.289 8.7842 138.751 8.3641 139.318 8.04313C139.894 7.71272 140.498 7.54752 141.13 7.54752C141.47 7.54752 141.834 7.59472 142.221 7.68912C142.466 7.74887 142.692 7.82187 142.899 7.9081L141.503 5.16099C140.671 5.20074 139.919 5.42039 139.247 5.81994C138.501 6.25419 137.888 6.89142 137.406 7.7316V5.60753H134.659Z"
    fill="white"
  />
  <path
    d="M147.699 24.6392H150.799L160 5.09777H156.87L152.07 16.0721L146.717 5.09777H143.588L150.484 18.8051L147.699 24.6392Z"
    fill="white"
  />
</svg>
