<svg width="24" height="24" viewBox="0 0 24 24" fill="none" xmlns="http://www.w3.org/2000/svg">
  <style>
    .visualizezza.ccbaa2c6fd2e {
      fill: #fefeff;
      transition: fill 250ms ease;
    }

    .visualizezza.ccbaa2c6fd2e.active {
      fill: #f7ac18;
    }

    .visualizezza.d4bd8a5a9e14 {
      fill: #fefeff;
      transition: fill 250ms ease;
    }

    .visualizezza.d4bd8a5a9e14.active {
      fill: #2e9ca0;
    }
  </style>

  <path
    class="visualizezza ccbaa2c6fd2e"
    d="M11.8556 0.0010452C10.866 0.00559399 9.92113 0.089074 9.09021 0.234678C6.63996 0.662863 6.19525 1.55874 6.19525 3.21168V5.39425H11.983V6.12163H4.02349C2.34135 6.12163 0.867321 7.12193 0.407495 9.02388C-0.124003 11.2043 -0.147534 12.5668 0.407495 14.8433C0.818963 16.5386 1.80165 17.7456 3.48379 17.7456H5.47399V15.1295C5.47399 13.2395 7.12699 11.5716 9.08999 11.5716H14.8713C16.4807 11.5716 17.7662 10.2608 17.7662 8.66297V3.21083C17.7662 1.65911 16.4429 0.494365 14.8713 0.233824C13.8769 0.0700886 12.8452 -0.0042937 11.8554 0.000191025L11.8556 0.0010452ZM8.72537 1.75628C9.32336 1.75628 9.81147 2.24725 9.81147 2.85077C9.81146 3.45215 9.32314 3.93863 8.72537 3.93863C8.12544 3.93863 7.63928 3.45236 7.63928 2.85077C7.63928 2.24725 8.12544 1.75628 8.72537 1.75628Z"
    fill="#fefeff"
  />
  <path
    class="visualizezza d4bd8a5a9e14"
    d="M18.4875 6.11991V8.66339C18.4875 10.6347 16.798 12.2939 14.8715 12.2939H9.09024C7.50654 12.2939 6.19528 13.6346 6.19528 15.2025V20.6547C6.19528 22.2064 7.55943 23.1192 9.09024 23.5634C10.9224 24.0964 12.6803 24.1927 14.8715 23.5634C16.3287 23.1461 17.7665 22.3059 17.7665 20.6547V18.4721H11.9852V17.7447H20.6614C22.3436 17.7447 22.9714 16.5841 23.5564 14.8425C24.1606 13.0488 24.135 11.323 23.5564 9.02302C23.1406 7.36645 22.3466 6.12077 20.6614 6.12077H18.4897L18.4875 6.11991ZM15.2364 19.9286C15.8363 19.9286 16.3225 20.4149 16.3225 21.0165C16.3225 21.62 15.8363 22.1109 15.2364 22.1109C14.6384 22.1109 14.1503 21.62 14.1503 21.0165C14.1503 20.4151 14.6386 19.9286 15.2364 19.9286Z"
    fill="#fefeff"
  />
</svg>
