<svg width="59" height="59" viewBox="0 0 59 59" fill="none" xmlns="http://www.w3.org/2000/svg">
  <path d="M40.959 41.8843L42.2284 40.6149" stroke="#67DF8F" stroke-width="4" stroke-linecap="round" />
  <path
    d="M15.5711 19.0358L19.3792 15.2277M37.859 1.19092C42.7026 1.75545 47.3976 3.89567 51.1135 7.6116C54.8294 11.3275 56.9697 16.0225 57.5342 20.8661M1.53418 37.5155C2.09871 42.3592 4.23894 47.0541 7.95486 50.77C11.6708 54.4859 16.3657 56.6262 21.2094 57.1907M41.0006 51.997L52.3403 40.6573C55.5184 37.4792 55.5184 32.3265 52.3403 29.1484L29.5763 6.38435C26.3982 3.20626 21.2455 3.20625 18.0674 6.38435L6.72764 17.7241C3.54955 20.9022 3.54955 26.0549 6.72764 29.233L29.4917 51.997C32.6698 55.1751 37.8225 55.1751 41.0006 51.997Z"
    stroke="#67DF8F"
    stroke-width="2"
    stroke-linecap="round"
  />
</svg>
