<svg width="24" height="24" viewBox="0 0 24 24" fill="none" xmlns="http://www.w3.org/2000/svg">
  <style>
    .visualizezza.b2932d770ef8 {
      fill: #fefeff;
      transition: fill 250ms ease;
    }

    .visualizezza.b2932d770ef8.active {
      fill: #e94e20;
    }
  </style>

  <path
    class="visualizezza b2932d770ef8"
    d="M11.0746 1.18453C10.9814 1.19206 10.8881 1.20148 10.7958 1.21184L9.97736 0.335869C9.84645 0.197409 9.62794 0.189873 9.48948 0.320799C9.45087 0.356591 9.42167 0.40086 9.40283 0.44984L8.98277 1.57165C8.89329 1.59803 8.80381 1.6244 8.71528 1.65266L7.74046 0.951877C7.58599 0.840732 7.37125 0.875583 7.26011 1.03006C7.22903 1.07338 7.20831 1.12331 7.19983 1.17605L7.00581 2.3638C6.92387 2.40619 6.84193 2.45046 6.76187 2.49472L5.66649 1.99551C5.62128 1.97479 5.57325 1.96443 5.52427 1.96443C5.33308 1.96537 5.17861 2.12173 5.17955 2.31294C5.17955 2.31576 5.17955 2.31859 5.17955 2.32141L5.22194 3.528C5.1513 3.58451 5.0816 3.64197 5.01284 3.70037L3.83647 3.42345C3.65092 3.38012 3.46538 3.49692 3.42205 3.68247C3.40981 3.73334 3.40981 3.78702 3.42205 3.83789L3.69896 5.01433C3.64056 5.08309 3.58311 5.15373 3.5266 5.22344L2.32008 5.18105H2.30689C2.11758 5.18199 1.96406 5.33552 1.96312 5.52485C1.96312 5.57477 1.97348 5.62281 1.9942 5.66802L2.49338 6.76346C2.44911 6.84352 2.40485 6.92546 2.36246 7.00741L1.17478 7.20144C0.986412 7.23347 0.859262 7.41149 0.891285 7.59987C0.899762 7.65168 0.920482 7.69971 0.950621 7.7421L1.65136 8.71698C1.62311 8.80646 1.59579 8.895 1.57036 8.98448L0.448613 9.40457C0.270602 9.47144 0.180184 9.67019 0.247056 9.84915C0.265893 9.89813 0.295091 9.94334 0.333707 9.97913L1.20963 10.7977C1.19927 10.89 1.18985 10.9832 1.18232 11.0765L0.163231 11.7075C0.00123186 11.8074 -0.0486865 12.0203 0.052092 12.1823C0.0803477 12.2275 0.118022 12.2661 0.163231 12.2934L1.18326 12.9245C1.19079 13.0177 1.20021 13.111 1.21057 13.2033L0.334649 14.0218C0.195254 14.1509 0.187719 14.3684 0.316753 14.5078C0.353486 14.5474 0.398694 14.5775 0.449554 14.5964L1.5713 15.0165C1.59768 15.1059 1.62405 15.1954 1.6523 15.284L0.951564 16.2588C0.840425 16.4124 0.874331 16.6281 1.0288 16.7392C1.07212 16.7703 1.12298 16.792 1.17573 16.8004L2.3634 16.9945C2.40579 17.0764 2.45006 17.1574 2.49432 17.2375L1.99514 18.3339C1.91602 18.5072 1.99231 18.7116 2.16562 18.7898C2.21082 18.8105 2.2598 18.8208 2.30878 18.8208H2.32102L3.52848 18.7785C3.58499 18.8491 3.64244 18.9188 3.6999 18.9876L3.42299 20.164C3.37967 20.3496 3.49646 20.5351 3.682 20.5784C3.73286 20.5907 3.78655 20.5907 3.83741 20.5784L5.01473 20.3015C5.08348 20.3599 5.15318 20.4164 5.22288 20.4729L5.18049 21.6805V21.6937C5.18144 21.883 5.33496 22.0365 5.52427 22.0375C5.57419 22.0375 5.62317 22.0271 5.66743 22.0064L6.76375 21.5072C6.84475 21.5524 6.92575 21.5957 7.00769 21.6381L7.20172 22.8258C7.2328 23.0142 7.41081 23.1414 7.59918 23.1093C7.65098 23.1009 7.69996 23.0801 7.74328 23.05L8.7181 22.3492C8.80664 22.3775 8.89611 22.4048 8.98559 22.4302L9.40566 23.552C9.47253 23.7301 9.67126 23.8205 9.84927 23.7536C9.89919 23.7348 9.94346 23.7056 9.98019 23.666L10.7987 22.79C10.891 22.8004 10.9842 22.8098 11.0775 22.8174L11.7085 23.8365C11.8083 23.9985 12.0202 24.0484 12.1822 23.9486C12.2275 23.9203 12.2661 23.8817 12.2943 23.8365L12.9254 22.8174C13.0186 22.8098 13.1119 22.8004 13.2042 22.79L14.0226 23.666C14.1036 23.7527 14.2242 23.7922 14.3419 23.7687C14.4587 23.7451 14.5557 23.6632 14.5972 23.552L15.0172 22.4302C15.1067 22.4039 15.1962 22.3775 15.2847 22.3492L16.2595 23.05C16.414 23.1612 16.6297 23.1254 16.7408 22.9699C16.7719 22.9266 16.7917 22.8776 16.8011 22.8249L16.9951 21.6371C17.0771 21.5948 17.1581 21.5505 17.2381 21.5062L18.3344 22.0054C18.3797 22.0262 18.4286 22.0365 18.4776 22.0365C18.666 22.0365 18.8214 21.8811 18.8214 21.6927V21.6805L18.779 20.4729C18.8496 20.4164 18.9193 20.3599 18.9881 20.3015L20.1645 20.5784C20.35 20.6218 20.5356 20.505 20.5789 20.3194C20.5911 20.2685 20.5911 20.2149 20.5789 20.164L20.302 18.9876C20.3604 18.9188 20.4169 18.8491 20.4734 18.7785L21.6809 18.8208H21.6931C21.8824 18.8208 22.0378 18.6654 22.0378 18.4761C22.0378 18.4262 22.0275 18.3781 22.0067 18.3329L21.5076 17.2365C21.5528 17.1565 21.5961 17.0745 21.6385 16.9935L22.8262 16.7995C23.0145 16.7684 23.1417 16.5913 23.1106 16.403C23.1021 16.3512 23.0814 16.3012 23.0503 16.2579L22.3496 15.283C22.3778 15.1945 22.4051 15.105 22.4306 15.0155L23.5523 14.5954C23.7303 14.5295 23.8208 14.3317 23.7548 14.1537C23.736 14.1028 23.7059 14.0576 23.6663 14.0209L22.7904 13.2023C22.8007 13.1091 22.8101 13.0168 22.8177 12.9235L23.8368 12.2925C23.9988 12.1917 24.0487 11.9797 23.9479 11.8177C23.9197 11.7725 23.882 11.7349 23.8368 11.7066L22.8177 11.0755C22.8101 10.9823 22.8007 10.889 22.7904 10.7967L23.6663 9.97819C23.8057 9.84821 23.8123 9.62969 23.6823 9.49028C23.6465 9.45166 23.6022 9.42247 23.5523 9.40363L22.4306 8.98353C22.4042 8.89405 22.3778 8.80457 22.3496 8.71603L23.0503 7.74116C23.1615 7.58668 23.1257 7.37099 22.9712 7.25984C22.9279 7.22876 22.878 7.20804 22.8262 7.19956L21.6385 7.00553C21.5961 6.92358 21.5518 6.84258 21.5076 6.76157L22.0067 5.66519C22.0275 5.61998 22.0378 5.571 22.0378 5.52202C22.0378 5.3327 21.8824 5.17822 21.694 5.17822H21.6818L20.4743 5.22061C20.4178 5.14997 20.3613 5.08121 20.3029 5.01245L20.5798 3.83506C20.6222 3.64856 20.5064 3.46395 20.3199 3.42062C20.269 3.40932 20.2163 3.40932 20.1654 3.42062L18.9853 3.70037C18.9165 3.64197 18.8468 3.58546 18.7762 3.52894L18.8186 2.32141V2.30917C18.8186 2.11984 18.6632 1.96443 18.4738 1.96443C18.4249 1.96443 18.3759 1.97479 18.3307 1.99551L17.2344 2.49472C17.1534 2.45046 17.0724 2.40619 16.9914 2.3638L16.7973 1.17605C16.7663 0.988612 16.5892 0.860512 16.4018 0.891595C16.349 0.900072 16.3 0.920794 16.2567 0.951877L15.2819 1.65266C15.1934 1.6244 15.1039 1.59709 15.0144 1.57165L14.5943 0.44984C14.5284 0.271819 14.3306 0.181396 14.1526 0.24733C14.1027 0.266168 14.0575 0.296308 14.0207 0.334927L13.2023 1.2109C13.109 1.20054 13.0167 1.19112 12.9235 1.18359L12.2924 0.1635C12.1926 0.00149151 11.9807 -0.0484299 11.8187 0.0514125C11.7735 0.0796697 11.7349 0.118288 11.7066 0.1635C11.7057 0.164442 11.0746 1.18453 11.0746 1.18453ZM10.0075 12.8115H12.2793C12.4855 12.8115 13.3888 12.8708 13.6751 14.0237C13.7646 14.3769 13.9642 15.5298 14.0999 15.9C14.2355 16.3135 14.7846 17.1405 15.3695 17.1405H19.0757C18.827 17.473 18.5558 17.7876 18.2629 18.0824L16.754 17.7584C16.4027 17.6849 16.057 17.9081 15.9798 18.2585L15.6219 19.9304C13.2908 20.9853 10.615 20.9722 8.29427 19.8956L7.93636 18.2237C7.86102 17.8733 7.51535 17.6491 7.16498 17.7235L5.68816 18.04C5.41408 17.7574 5.15977 17.4569 4.92525 17.1395H12.106C12.186 17.1395 12.2416 17.1254 12.2416 17.05V14.5107C12.2416 14.4372 12.186 14.4212 12.106 14.4212H10.0047C10.0056 14.4212 10.0075 12.8115 10.0075 12.8115ZM17.2692 18.6607C17.6544 18.6748 17.9596 18.9894 17.9624 19.3747C17.9624 19.7665 17.6403 20.0886 17.2485 20.0886C16.8557 20.0849 16.5383 19.7675 16.5346 19.3747C16.5383 18.9819 16.8557 18.6635 17.2485 18.6607H17.2692ZM6.69406 18.6287C7.07928 18.6428 7.38444 18.9574 7.38726 19.3427C7.38349 19.7354 7.06609 20.0529 6.67334 20.0566C6.28058 20.0529 5.96318 19.7354 5.95941 19.3427C5.96318 18.9499 6.28058 18.6315 6.67334 18.6287H6.69406ZM13.6176 3.28593C16.155 3.76253 18.3542 5.32893 19.6342 7.57161L18.7912 9.47333C18.649 9.803 18.796 10.1854 19.1218 10.3342L20.7428 11.0529C20.7927 11.5597 20.7993 12.0702 20.7607 12.5779H19.8584C19.7689 12.5779 19.7322 12.6372 19.7322 12.7248V13.1383C19.7322 14.1122 19.1831 14.326 18.7008 14.3788C18.2412 14.4315 17.7335 14.1857 17.6695 13.906C17.3982 12.3829 16.948 12.0589 16.236 11.4966C17.1204 10.9361 18.0387 10.1072 18.0387 9.00049C18.0387 7.80427 17.2193 7.05074 16.6608 6.68151C15.8753 6.1644 15.0069 6.06173 14.7733 6.06173H5.44986C6.73926 4.62155 8.46757 3.64668 10.3664 3.28781L11.4664 4.44071C11.7132 4.69973 12.1229 4.71009 12.3819 4.46426C12.3829 4.46331 12.3838 4.46237 12.3847 4.46143C12.3866 4.45955 13.6176 3.28593 13.6176 3.28593ZM4.81317 8.71886H6.0583V14.3317H3.54638C3.23651 13.2419 3.13949 12.1031 3.26193 10.9766L4.80093 10.2918C5.12869 10.1459 5.27656 9.76155 5.13152 9.43283C5.13058 9.43377 4.81317 8.71886 4.81317 8.71886ZM10.0075 8.77914H12.9725C13.126 8.77914 14.0547 8.95622 14.0547 9.65135C14.0547 10.2278 13.3426 10.4341 12.7568 10.4341H10.0056L10.0075 8.77914ZM20.4951 8.60489C20.8803 8.61902 21.1854 8.93361 21.1883 9.31885C21.1845 9.71163 20.8671 10.0291 20.4743 10.0328C20.0816 10.0291 19.7642 9.71163 19.7604 9.31885C19.7642 8.92514 20.0835 8.60677 20.4781 8.60489H20.4951ZM3.46726 8.57192C3.85248 8.58605 4.15764 8.90065 4.16046 9.28589C4.1567 9.67867 3.83929 9.99609 3.44654 9.99986C3.05378 9.99609 2.73638 9.67867 2.73261 9.28589C2.73638 8.89311 3.05378 8.57475 3.44654 8.57192H3.46726ZM11.9826 2.10948C12.3678 2.12361 12.6739 2.43821 12.6758 2.82345C12.6758 3.21528 12.3537 3.53742 11.9619 3.53742C11.5691 3.53365 11.2517 3.21623 11.2479 2.82345V2.82251C11.2479 2.43067 11.57 2.10854 11.9619 2.10854C11.9619 2.10948 11.9826 2.10948 11.9826 2.10948Z"
    fill="#fefeff"
  />
</svg>
