<svg width="50" height="50" viewBox="0 0 50 50" fill="none" xmlns="http://www.w3.org/2000/svg">
  <path
    fill-rule="evenodd"
    clip-rule="evenodd"
    d="M0 12C0 5.37258 5.37258 0 12 0H38C44.6274 0 50 5.37258 50 12C50 18.6274 44.6274 24 38 24H12C5.37258 24 0 18.6274 0 12ZM20 12C20 16.4183 16.4183 20 12 20C7.58172 20 4 16.4183 4 12C4 7.58172 7.58172 4 12 4C16.4183 4 20 7.58172 20 12ZM31 10C29.8954 10 29 10.8954 29 12C29 13.1046 29.8954 14 31 14H41C42.1046 14 43 13.1046 43 12C43 10.8954 42.1046 10 41 10H31Z"
    fill="#F7AD19"
  />
  <path
    fill-rule="evenodd"
    clip-rule="evenodd"
    d="M0 38C0 31.3726 5.37258 26 12 26H38C44.6274 26 50 31.3726 50 38C50 44.6274 44.6274 50 38 50H12C5.37258 50 0 44.6274 0 38ZM20 38C20 42.4183 16.4183 46 12 46C7.58172 46 4 42.4183 4 38C4 33.5817 7.58172 30 12 30C16.4183 30 20 33.5817 20 38ZM31 36C29.8954 36 29 36.8954 29 38C29 39.1046 29.8954 40 31 40H41C42.1046 40 43 39.1046 43 38C43 36.8954 42.1046 36 41 36H31Z"
    fill="#F7AD19"
  />
</svg>
