<svg width="76" height="50" viewBox="0 0 76 50" fill="none" xmlns="http://www.w3.org/2000/svg">
  <path
    fill-rule="evenodd"
    clip-rule="evenodd"
    d="M73.4179 44.1014C76 40.4622 76 35.3081 76 25C76 14.6919 76 9.5378 73.4179 5.89861C72.5067 4.61449 71.3855 3.49328 70.1014 2.58215C66.4622 3.09944e-06 61.3081 2.53029e-06 51 0C40.6919 0 35.5378 0 31.8986 2.58215C30.6145 3.49327 29.4933 4.61449 28.5821 5.8986C26 9.5378 26 14.6919 26 25C26 35.3081 26 40.4622 28.5821 44.1014C29.4933 45.3855 30.6145 46.5067 31.8986 47.4179C35.5378 50 40.6919 50 51 50C61.3081 50 66.4622 50 70.1014 47.4179C71.3855 46.5067 72.5067 45.3855 73.4179 44.1014ZM51 35C56.5228 35 61 30.5228 61 25C61 19.4772 56.5228 15 51 15C45.4772 15 41 19.4772 41 25C41 30.5228 45.4772 35 51 35Z"
    fill="#F7AD19"
  />
  <path
    d="M16 25C16 29.4183 12.4183 33 8 33C3.58172 33 0 29.4183 0 25C0 20.5817 3.58172 17 8 17C12.4183 17 16 20.5817 16 25Z"
    fill="#F7AD19"
  />
</svg>
