<svg width="50" height="52" viewBox="0 0 50 52" fill="none" xmlns="http://www.w3.org/2000/svg">
  <style>
    @keyframes motion-a20c4ea7 {
      to {
        stroke-dashoffset: 0;
      }
    }

    .visualizezza {
      transform-box: fill-box;
      transform-origin: center;
    }

    .visualizezza.de58ab1e._active {
      stroke-dasharray: 120;
      stroke-dashoffset: 120;
      animation: motion-a20c4ea7 1.1s ease-in-out infinite alternate;
    }

    .visualizezza.abab1e2c._active {
      stroke-dasharray: 65;
      stroke-dashoffset: 65;
      animation: motion-a20c4ea7 1.1s ease-in-out infinite alternate;
    }
  </style>

  <path
    d="M25.9541 2H23.0843C22.574 2 22.1387 2.3684 22.0565 2.8703L21.3599 7.05203C21.163 8.2339 20.2957 9.17538 19.1887 9.63376V9.63376C18.093 10.0875 16.8274 10.0411 15.856 9.36076L12.3606 6.9128C11.9463 6.6215 11.3817 6.6716 11.0237 7.0295L6.96635 11.0897C6.60632 11.4518 6.55934 12.0206 6.85574 12.4349L9.29909 15.852C10.0002 16.8325 10.0518 18.1207 9.59001 19.2341V19.2341C9.13372 20.3341 8.20343 21.1991 7.0308 21.407L2.86094 22.1465C2.36315 22.235 2 22.6682 2 23.1743V28.9133C2 29.4227 2.36942 29.8589 2.87243 29.9423L7.01683 30.6323C8.2031 30.8298 9.14947 31.7016 9.61162 32.8118V32.8118C10.0704 33.9141 10.0246 35.1861 9.3406 36.1646L6.91103 39.6403C6.61988 40.0546 6.66998 40.6181 7.02791 40.976L11.0843 45.032C11.4464 45.392 12.013 45.44 12.4294 45.1426L15.8959 42.6668C16.8583 41.9794 18.1166 41.9237 19.2104 42.3735V42.3735C20.3123 42.8267 21.1791 43.7659 21.3712 44.9417L22.0544 49.1245C22.1366 49.6296 22.5728 50 23.0843 50H25.9541"
    stroke="#FEFEFF"
    stroke-width="2.4"
  />
  <path
    class="visualizezza de58ab1e"
    d="M39.7487 9.93066L36.2175 13.0613C35.1962 13.8584 33.9272 14.2927 32.6193 14.2927H28.8798C23.5779 14.2927 19.2798 18.4859 19.2798 23.6586V28.3415C19.2798 33.5141 23.5779 37.7073 28.8798 37.7073H32.6193C33.9272 37.7073 35.1962 38.1416 36.2175 38.9388L39.7487 42.0694"
    stroke="#F7AD19"
    stroke-width="2.4"
  />
  <circle cx="43.28" cy="6.79998" r="4.8" transform="rotate(-90 43.28 6.79998)" stroke="#FEFEFF" stroke-width="2.4" />
  <circle cx="43.28" cy="45.2" r="4.8" transform="rotate(-90 43.28 45.2)" stroke="#FEFEFF" stroke-width="2.4" />
  <circle cx="43.28" cy="26" r="4.8" transform="rotate(-90 43.28 26)" stroke="#FEFEFF" stroke-width="2.4" />
  <path class="visualizezza abab1e2c" d="M26 26H38" stroke="#F7AD19" stroke-width="2.4" />
</svg>
