<svg width="50" height="50" viewBox="0 0 50 50" fill="none" xmlns="http://www.w3.org/2000/svg">
  <style>
    @keyframes rotate-f2de0215 {
      from {
        transform: rotate(0deg);
      }
      to {
        transform: rotate(360deg);
      }
    }

    @keyframes rotate-a7ed59e8 {
      from {
        transform: rotate(0deg);
      }
      to {
        transform: rotate(-360deg);
      }
    }

    .visualizezza {
      transform-box: fill-box;
      transform-origin: center;
    }

    .visualizezza.e005b031._active {
      animation: rotate-f2de0215 2s linear infinite;
    }

    .visualizezza.df80082a._active {
      animation: rotate-a7ed59e8 2s linear infinite;
    }
  </style>
  <path
    d="M21.667 38.3333H17.667C14.3533 38.3333 11.667 35.647 11.667 32.3333V28.3333"
    stroke="#F7AD19"
    stroke-width="2.4"
  />
  <path
    d="M28.333 11.6667H32.333C35.6467 11.6667 38.333 14.353 38.333 17.6667V21.6667"
    stroke="#F7AD19"
    stroke-width="2.4"
  />
  <path
    class="visualizezza e005b031"
    d="M20.6467 10.5961L22.1333 10.8391V12.4586L20.6214 12.724C19.5862 12.9057 18.8401 13.6514 18.495 14.4891C18.1465 15.3353 18.1549 16.4008 18.7752 17.2619L19.6546 18.483L18.51 19.6284L17.2758 18.7626C16.4062 18.1526 15.3411 18.1516 14.4936 18.5053C13.6565 18.8548 12.9074 19.6034 12.723 20.6425L12.4585 22.1333H10.8368L10.5947 20.6803C10.4194 19.6276 9.66539 18.866 8.8147 18.5138C7.97278 18.1652 6.91264 18.1662 6.04718 18.7723L4.82419 19.6288L3.67779 18.4816L4.5243 17.2977C5.14779 16.4257 5.15185 15.3489 4.79802 14.4959C4.44814 13.6524 3.69706 12.9026 2.65506 12.7178L1.2 12.4598V10.8376L2.63581 10.5986C3.69074 10.4229 4.45397 9.66688 4.80795 8.81651C5.16009 7.97054 5.15928 6.90696 4.55188 6.03802L3.70352 4.82437L4.8495 3.67848L6.05748 4.54125C6.9171 5.15522 7.97691 5.16495 8.82262 4.81712C9.67169 4.4679 10.4287 3.70619 10.6008 2.65235L10.8381 1.2H12.4574L12.7184 2.68939C12.9002 3.7274 13.6461 4.47639 14.486 4.82474C15.3358 5.1772 16.4089 5.17184 17.2764 4.5484L18.4829 3.68132L19.6278 4.82562L18.7468 6.08124C18.1442 6.93994 18.1405 7.99261 18.4887 8.83087C18.8396 9.67589 19.5992 10.4249 20.6467 10.5961ZM22.7066 12.3579L22.7063 12.358L22.7066 12.3579ZM19.9987 18.9607C19.9985 18.9604 19.9984 18.9602 19.9982 18.96L19.9987 18.9607ZM10.933 0.619037C10.9329 0.61922 10.9329 0.619402 10.9329 0.619584L10.933 0.619037ZM3.33638 18.959L3.33656 18.9588L3.33638 18.959Z"
    stroke="#FEFEFF"
    stroke-width="2.4"
  />
  <path
    class="visualizezza df80082a"
    d="M47.3137 39.4039L48.8003 39.1609V37.5414L47.2884 37.276C46.2532 37.0943 45.5071 36.3486 45.162 35.5109C44.8135 34.6647 44.8219 33.5992 45.4422 32.7381L46.3216 31.517L45.177 30.3716L43.9428 31.2374C43.0732 31.8474 42.0081 31.8484 41.1606 31.4947C40.3234 31.1452 39.5744 30.3966 39.39 29.3575L39.1255 27.8667H37.5038L37.2617 29.3197C37.0864 30.3724 36.3324 31.134 35.4817 31.4862C34.6398 31.8348 33.5796 31.8338 32.7142 31.2277L31.4912 30.3712L30.3448 31.5184L31.1913 32.7023C31.8148 33.5743 31.8188 34.6511 31.465 35.5041C31.1151 36.3476 30.3641 37.0974 29.3221 37.2822L27.867 37.5402V39.1624L29.3028 39.4014C30.3577 39.5771 31.121 40.3331 31.4749 41.1835C31.8271 42.0295 31.8263 43.093 31.2189 43.962L30.3705 45.1756L31.5165 46.3215L32.7245 45.4587C33.5841 44.8448 34.6439 44.8351 35.4896 45.1829C36.3387 45.5321 37.0957 46.2938 37.2678 47.3477L37.5051 48.8H39.1244L39.3853 47.3106C39.5672 46.2726 40.3131 45.5236 41.153 45.1753C42.0028 44.8228 43.0759 44.8282 43.9434 45.4516L45.1499 46.3187L46.2948 45.1744L45.4138 43.9188C44.8112 43.0601 44.8075 42.0074 45.1556 41.1691C45.5066 40.3241 46.2662 39.5751 47.3137 39.4039ZM49.3736 37.6421L49.3733 37.642L49.3736 37.6421ZM46.6657 31.0393C46.6655 31.0396 46.6654 31.0398 46.6652 31.04L46.6657 31.0393ZM37.6 49.381C37.5999 49.3808 37.5999 49.3806 37.5999 49.3804L37.6 49.381ZM30.0034 31.041L30.0036 31.0412L30.0034 31.041Z"
    stroke="#FEFEFF"
    stroke-width="2.4"
  />
</svg>
