<svg width="54" height="54" viewBox="0 0 54 54" fill="none" xmlns="http://www.w3.org/2000/svg">
  <path
    d="M27 21.3334L27 28M27 28C27 30.2092 28.7909 31.5 31 31.5L41 31.5C44.3137 31.5 47 34.6863 47 38V42.6667M27 28C27 30.2092 25.2091 31.5 23 31.5L13 31.5C9.68629 31.5 7 34.6863 7 38L7 42.6667"
    stroke="#F7AD19"
    stroke-width="2.4"
  />
  <circle cx="7" cy="47" r="5" transform="rotate(-90 7 47)" stroke="#FEFEFF" stroke-width="2.4" />
  <circle cx="27" cy="47" r="5" transform="rotate(-90 27 47)" stroke="#FEFEFF" stroke-width="2.4" />
  <circle cx="47" cy="47" r="5" transform="rotate(-90 47 47)" stroke="#FEFEFF" stroke-width="2.4" />
  <path
    d="M23.6665 22C19.928 22 18.0588 22 16.6665 21.1962C15.7544 20.6695 14.997 19.9121 14.4704 19C13.6665 17.6077 13.6665 15.7385 13.6665 12V12C13.6665 8.26154 13.6665 6.3923 14.4704 5C14.997 4.08788 15.7544 3.33046 16.6665 2.80385C18.0588 2 19.928 2 23.6665 2L30.3332 2C34.0716 2 35.9409 2 37.3332 2.80385C38.2453 3.33046 39.0027 4.08788 39.5293 5C40.3332 6.3923 40.3332 8.26154 40.3332 12V12C40.3332 15.7385 40.3332 17.6077 39.5293 19C39.0027 19.9121 38.2453 20.6695 37.3332 21.1962C35.9409 22 34.0716 22 30.3332 22L23.6665 22Z"
    stroke="#FEFEFF"
    stroke-width="2.4"
  />
  <path d="M20.3335 12H33.6668" stroke="#F7AD19" stroke-width="2.4" />
</svg>
