<svg width="26" height="26" viewBox="0 0 26 26" fill="none" xmlns="http://www.w3.org/2000/svg">
  <path
    d="M11.9975 1.28324C11.8965 1.2914 11.7955 1.30161 11.6955 1.31283L10.8088 0.363859C10.667 0.21386 10.4303 0.205696 10.2803 0.347532C10.2384 0.386307 10.2068 0.434265 10.1864 0.487326L9.73133 1.70262C9.6344 1.7312 9.53747 1.75977 9.44155 1.79038L8.3855 1.0312C8.21816 0.910793 7.98552 0.948548 7.86512 1.11589C7.83145 1.16283 7.809 1.21691 7.79982 1.27406L7.58963 2.56078C7.50086 2.6067 7.41209 2.65466 7.32536 2.70262L6.1387 2.16181C6.08972 2.13936 6.03769 2.12813 5.98463 2.12813C5.7775 2.12915 5.61016 2.29854 5.61118 2.50568C5.61118 2.50874 5.61118 2.5118 5.61118 2.51486L5.6571 3.822C5.58057 3.88322 5.50507 3.94547 5.43058 4.00873L4.15617 3.70873C3.95517 3.6618 3.75416 3.78833 3.70722 3.98935C3.69396 4.04445 3.69396 4.10261 3.70722 4.15771L4.0072 5.43219C3.94394 5.50668 3.8817 5.58321 3.82048 5.65872L2.51342 5.6128H2.49913C2.29405 5.61382 2.12773 5.78015 2.12671 5.98525C2.12671 6.03933 2.13793 6.09137 2.16038 6.14035L2.70116 7.32708C2.65321 7.41381 2.60525 7.50259 2.55934 7.59136L1.27268 7.80156C1.06861 7.83626 0.930867 8.02911 0.965559 8.23319C0.974742 8.28932 0.997189 8.34136 1.02984 8.38727L1.78898 9.44339C1.75837 9.54033 1.72878 9.63625 1.70123 9.73318L0.485998 10.1883C0.293153 10.2607 0.1952 10.476 0.267644 10.6699C0.288051 10.723 0.319681 10.772 0.361515 10.8107L1.31043 11.6975C1.29921 11.7975 1.28901 11.8985 1.28085 11.9995L0.176834 12.6832C0.00133451 12.7913 -0.0527437 13.0219 0.056433 13.1974C0.0870433 13.2464 0.127857 13.2883 0.176834 13.3179L1.28187 14.0015C1.29003 14.1025 1.30023 14.2036 1.31146 14.3036L0.362536 15.1903C0.211525 15.3301 0.203362 15.5658 0.343149 15.7168C0.382943 15.7597 0.431919 15.7923 0.487017 15.8127L1.70225 16.2678C1.73082 16.3648 1.75939 16.4617 1.79 16.5576L1.03086 17.6137C0.91046 17.7801 0.947192 18.0137 1.11453 18.1341C1.16146 18.1678 1.21656 18.1913 1.2737 18.2005L2.56036 18.4107C2.60627 18.4995 2.65423 18.5872 2.70218 18.6739L2.1614 19.8617C2.07569 20.0494 2.15834 20.2709 2.34608 20.3556C2.39506 20.378 2.44812 20.3892 2.50118 20.3892H2.51444L3.82252 20.3433C3.88374 20.4199 3.94598 20.4954 4.00822 20.5698L3.70824 21.8443C3.66131 22.0453 3.78783 22.2464 3.98884 22.2933C4.04393 22.3066 4.10209 22.3066 4.15719 22.2933L5.43262 21.9933C5.50711 22.0566 5.58261 22.1178 5.65812 22.179L5.6122 23.4872V23.5015C5.61322 23.7066 5.77954 23.8729 5.98463 23.8739C6.03871 23.8739 6.09176 23.8627 6.13972 23.8402L7.3274 23.2994C7.41515 23.3484 7.5029 23.3953 7.59167 23.4413L7.80186 24.728C7.83553 24.9321 8.02838 25.0698 8.23244 25.0351C8.28856 25.0259 8.34162 25.0035 8.38856 24.9708L9.44461 24.2117C9.54053 24.2423 9.63746 24.2719 9.73439 24.2994L10.1895 25.5147C10.2619 25.7076 10.4772 25.8055 10.67 25.7331C10.7241 25.7127 10.7721 25.681 10.8119 25.6382L11.6986 24.6892C11.7985 24.7004 11.8996 24.7106 12.0006 24.7188L12.6842 25.8229C12.7924 25.9984 13.0219 26.0525 13.1974 25.9443C13.2464 25.9137 13.2882 25.8719 13.3189 25.8229L14.0025 24.7188C14.1035 24.7106 14.2045 24.7004 14.3045 24.6892L15.1912 25.6382C15.2789 25.7321 15.4095 25.7749 15.5371 25.7494C15.6636 25.7239 15.7687 25.6351 15.8136 25.5147L16.2687 24.2994C16.3656 24.2708 16.4625 24.2423 16.5584 24.2117L17.6145 24.9708C17.7818 25.0912 18.0155 25.0525 18.1359 24.8841C18.1696 24.8372 18.191 24.7841 18.2012 24.727L18.4114 23.4402C18.5002 23.3943 18.5879 23.3464 18.6746 23.2984L19.8623 23.8392C19.9113 23.8617 19.9644 23.8729 20.0174 23.8729C20.2215 23.8729 20.3898 23.7045 20.3898 23.5004V23.4872L20.3439 22.179C20.4204 22.1178 20.496 22.0566 20.5704 21.9933L21.8448 22.2933C22.0459 22.3402 22.2469 22.2137 22.2938 22.0127C22.3071 21.9576 22.3071 21.8994 22.2938 21.8443L21.9938 20.5698C22.0571 20.4954 22.1183 20.4199 22.1795 20.3433L23.4876 20.3892H23.5009C23.706 20.3892 23.8743 20.2209 23.8743 20.0158C23.8743 19.9617 23.8631 19.9096 23.8406 19.8607L23.2999 18.6729C23.3488 18.5862 23.3958 18.4974 23.4417 18.4097L24.7283 18.1995C24.9324 18.1658 25.0702 17.9739 25.0365 17.7699C25.0273 17.7137 25.0049 17.6597 24.9712 17.6127L24.212 16.5566C24.2427 16.4607 24.2722 16.3638 24.2998 16.2668L25.515 15.8117C25.7079 15.7403 25.8058 15.526 25.7344 15.3331C25.714 15.278 25.6813 15.2291 25.6385 15.1893L24.6896 14.3025C24.7008 14.2015 24.711 14.1015 24.7192 14.0005L25.8232 13.3168C25.9987 13.2077 26.0527 12.9781 25.9436 12.8026C25.913 12.7536 25.8721 12.7128 25.8232 12.6821L24.7192 11.9985C24.711 11.8975 24.7008 11.7964 24.6896 11.6964L25.6385 10.8097C25.7895 10.6689 25.7966 10.4322 25.6558 10.2811C25.6171 10.2393 25.5691 10.2077 25.515 10.1873L24.2998 9.73216C24.2712 9.63522 24.2427 9.53829 24.212 9.44237L24.9712 8.38625C25.0916 8.21891 25.0528 7.98524 24.8855 7.86483C24.8385 7.83116 24.7845 7.80871 24.7283 7.79952L23.4417 7.58932C23.3958 7.50055 23.3478 7.41279 23.2999 7.32504L23.8406 6.13729C23.8631 6.08831 23.8743 6.03525 23.8743 5.98219C23.8743 5.77709 23.706 5.60974 23.5019 5.60974H23.4886L22.1805 5.65566C22.1193 5.57913 22.0581 5.50464 21.9948 5.43015L22.2948 4.15465C22.3407 3.95261 22.2152 3.75261 22.0132 3.70567C21.9581 3.69343 21.901 3.69343 21.8459 3.70567L20.5674 4.00873C20.4929 3.94547 20.4174 3.88424 20.3409 3.82302L20.3868 2.51486V2.5016C20.3868 2.2965 20.2184 2.12813 20.0133 2.12813C19.9603 2.12813 19.9072 2.13936 19.8582 2.16181L18.6706 2.70262C18.5828 2.65466 18.4951 2.6067 18.4073 2.56078L18.1971 1.27406C18.1634 1.071 17.9716 0.932222 17.7686 0.965895C17.7114 0.975078 17.6584 0.997527 17.6114 1.0312L16.5554 1.79038C16.4595 1.75977 16.3625 1.73018 16.2656 1.70262L15.8105 0.487326C15.7391 0.29447 15.5248 0.196512 15.332 0.267941C15.2779 0.288349 15.2289 0.321001 15.1891 0.362837L14.3025 1.31181C14.2015 1.30059 14.1015 1.29038 14.0004 1.28222L13.3168 0.177125C13.2087 0.0016158 12.9791 -0.0524657 12.8036 0.0556968C12.7546 0.0863089 12.7128 0.128146 12.6822 0.177125C12.6811 0.178145 11.9975 1.28324 11.9975 1.28324ZM10.8415 13.8791H13.3025C13.526 13.8791 14.5045 13.9434 14.8147 15.1923C14.9116 15.575 15.1279 16.824 15.2749 17.225C15.4218 17.6729 16.0166 18.5688 16.6503 18.5688H20.6653C20.396 18.929 20.1021 19.2699 19.7848 19.5892L18.1502 19.2382C17.7696 19.1586 17.3951 19.4005 17.3115 19.7801L16.9237 21.5913C14.3984 22.7341 11.4996 22.7198 8.98546 21.5535L8.59773 19.7423C8.5161 19.3627 8.14163 19.1199 7.76207 19.2005L6.16217 19.5433C5.86525 19.2372 5.58976 18.9117 5.33569 18.5678H13.1148C13.2015 18.5678 13.2617 18.5525 13.2617 18.4709V15.7199C13.2617 15.6403 13.2015 15.6229 13.1148 15.6229H10.8384C10.8394 15.6229 10.8415 13.8791 10.8415 13.8791ZM18.7083 20.2158C19.1256 20.2311 19.4562 20.5719 19.4593 20.9892C19.4593 21.4137 19.1103 21.7627 18.6859 21.7627C18.2604 21.7586 17.9165 21.4147 17.9124 20.9892C17.9165 20.5637 18.2604 20.2188 18.6859 20.2158H18.7083ZM7.25189 20.1811C7.66922 20.1964 7.99981 20.5372 8.00287 20.9545C7.99879 21.38 7.65493 21.7239 7.22945 21.728C6.80396 21.7239 6.46011 21.38 6.45603 20.9545C6.46011 20.529 6.80396 20.1841 7.22945 20.1811H7.25189ZM14.7524 3.55976C17.5012 4.07608 19.8837 5.77301 21.2704 8.20258L20.3572 10.2628C20.2031 10.6199 20.3623 11.0342 20.7153 11.1954L22.4713 11.974C22.5254 12.523 22.5326 13.076 22.4907 13.626H21.5132C21.4163 13.626 21.3765 13.6903 21.3765 13.7852V14.2332C21.3765 15.2883 20.7817 15.5199 20.2592 15.577C19.7613 15.6342 19.2113 15.3678 19.142 15.0648C18.8481 13.4148 18.3604 13.0638 17.589 12.4546C18.5471 11.8475 19.5419 10.9495 19.5419 9.75053C19.5419 8.45462 18.6542 7.6383 18.0492 7.2383C17.1982 6.6781 16.2574 6.56688 16.0044 6.56688H5.90402C7.30087 5.00668 9.1732 3.95057 11.2302 3.5618L12.422 4.81077C12.6893 5.09138 13.1332 5.1026 13.4137 4.83628C13.4148 4.83526 13.4158 4.83424 13.4168 4.83322C13.4188 4.83118 14.7524 3.55976 14.7524 3.55976ZM5.21427 9.44543H6.56316V15.526H3.84191C3.50621 14.3454 3.40112 13.1117 3.53376 11.8913L5.201 11.1495C5.55608 10.9913 5.71628 10.575 5.55914 10.2189C5.55813 10.2199 5.21427 9.44543 5.21427 9.44543ZM10.8415 9.51074H14.0535C14.2198 9.51074 15.2259 9.70257 15.2259 10.4556C15.2259 11.0801 14.4545 11.3036 13.8198 11.3036H10.8394L10.8415 9.51074ZM22.203 9.32196C22.6203 9.33727 22.9509 9.67808 22.954 10.0954C22.9499 10.5209 22.606 10.8648 22.1805 10.8689C21.7551 10.8648 21.4112 10.5209 21.4071 10.0954C21.4112 9.6689 21.7571 9.324 22.1846 9.32196H22.203ZM3.7562 9.28625C4.17352 9.30155 4.50411 9.64237 4.50717 10.0597C4.50309 10.4852 4.15923 10.8291 3.73375 10.8332C3.30827 10.8291 2.96441 10.4852 2.96033 10.0597C2.96441 9.63421 3.30827 9.28931 3.73375 9.28625H3.7562ZM12.9811 2.28527C13.3984 2.30058 13.7301 2.64139 13.7321 3.05874C13.7321 3.48322 13.3831 3.8322 12.9587 3.8322C12.5332 3.82812 12.1893 3.48425 12.1853 3.05874V3.05772C12.1853 2.63323 12.5342 2.28425 12.9587 2.28425C12.9587 2.28527 12.9811 2.28527 12.9811 2.28527Z"
    fill="#FEFEFF"
  />
</svg>
